<?xml version="1.0" standalone="no"?><!DOCTYPE svg PUBLIC "-//W3C//DTD SVG 1.1//EN" "http://www.w3.org/Graphics/SVG/1.1/DTD/svg11.dtd"><svg t="1709605675068" class="icon" viewBox="0 0 1024 1024" version="1.1" xmlns="http://www.w3.org/2000/svg" p-id="13586" xmlns:xlink="http://www.w3.org/1999/xlink" width="32" height="32"><path d="M510.976182 62.389956c-168.849616 0-305.734216 136.885624-305.734216 305.73524 0 111.173009 59.344596 208.507848 148.090826 262.003226l121.640408 295.513434 0.034792 0c0 19.847024 16.104793 35.967166 35.96819 35.967166s35.969213-16.121166 35.969213-35.967166l0.034792 0 121.6752-295.513434c88.727811-53.531194 148.056034-150.830217 148.056034-262.003226C816.711422 199.275579 679.825798 62.389956 510.976182 62.389956zM510.976182 512.001023c-79.45461 0-143.874805-64.421218-143.874805-143.874805 0-79.455633 64.420195-143.875828 143.874805-143.875828 79.455633 0 143.875828 64.420195 143.875828 143.875828C654.850987 447.579805 590.430792 512.001023 510.976182 512.001023z" fill="#48bf61" p-id="13587"></path></svg>